<svg xmlns="http://www.w3.org/2000/svg" width="32" height="32" viewBox="0 0 32 32"><path d="M1.5 1.5h29v29h-29z" fill="#2B2A2A"/><path d="M19.125 10.016c1.456.849 2.656 2.079 3.256 3.683.455 2.103.348 4.148-.743 6.021-.959 1.311-2.268 2.434-3.888 2.78-2.045.198-3.784.202-5.5-1l-.672-.422c-1.377-1.377-2.118-3.067-2.156-4.984.016-1.96.395-3.05 1.657-4.516 2.361-2.032 4.996-2.979 8.047-1.563" fill="#FBFBFB"/><path d="M16.5 2.5h13v13h-6v-1.25c.403-.343.403-.343.938-.609 1.034-.519 1.521-1.115 2.063-2.141.13-.945.13-.945.078-1.922l-.019-.988c-.025-.839-.025-.839-.309-1.591h-.75l-.5 1.5-.5-1-.406-.672c-.441-1.058-.413-1.947-.345-3.077-1.104.318-1.104.318-2 1-.116.665-.116.665-.156 1.406l-.057.76-.037.584-.453-.25c-.56-.302-.56-.302-1.297-.25l-.5 2.25-2.75-.75z" fill="#FBE6AA"/><path d="M2.5 2.5h13v6l-1.75.25c-.172-.578-.172-.578-.25-1.25l.75-.75c.188-.739.188-.739 0-1.5-1.677-1.548-3.982-1.613-6.158-1.582-1.494.145-3.253.493-4.342 1.582.041.891.041.891.25 1.75l.5.25-.047.828c.053 1.042.113 1.015.797 1.672l.11.875c.044.884.044.884.625 1.281l.515.344.219.61c.247.719.247.719 1.063 1.156l.718.484v1h-6z" fill="#E1D09D"/><path d="m15.313 11.467.688.002.688-.002c.561.033.561.033.811.283q.025.695.016 1.391l-.007.766-.009.593.593-.009.767-.007.764-.009c.626.025.626.025.876.275q.036.624.031 1.25l.002.688c-.033.562-.033.562-.283.812q-.695.025-1.391.016l-.767-.007-.592-.009.009.593.007.767.009.764c-.025.626-.025.626-.275.876q-.624.036-1.25.031l-.688.002c-.562-.033-.562-.033-.812-.283a28 28 0 0 1-.015-1.391l.007-.767.008-.592-.593.009-.766.007-.765.009c-.626-.025-.626-.025-.876-.275a20 20 0 0 1-.031-1.25l-.002-.688c.033-.562.033-.562.283-.812a27 27 0 0 1 1.391-.015l.766.007.593.008-.009-.593-.007-.766-.009-.765c.032-.803.038-.862.837-.909" fill="#282727"/><path d="M27.25 2.5h2.25v13h-6v-1.25c.403-.343.403-.343.938-.609 1.018-.588 1.562-1.039 2.063-2.141.15-.999.217-1.991.25-3h.5z" fill="#E2D19E"/><path d="M14.25 9.5c2.282-.148 4.106-.135 6 1.25 1.331 1.19 2.143 2.521 2.338 4.301.092 2.244-.228 3.957-1.749 5.659-2.042 1.885-3.9 1.891-6.589 1.79v-.25l.985-.125c1.639-.362 2.904-1.45 3.823-2.84.232-.438.232-.438.443-1.035h-2v-.75l2.75-.25v-2.5l-.5-.25a24 24 0 0 1-.547-1.172c-.776-1.603-1.827-2.606-3.454-3.328a28 28 0 0 0-1.5-.25z" fill="#E7E7E7"/><path d="M23.5 16.5h6v11H28q-.379-1.273-.75-2.547l-.217-.727-.205-.706-.191-.647c-.142-.644-.163-1.216-.138-1.874l1.25-.25v-1l-.563-.078c-.749-.188-1.134-.388-1.688-.922-.188-.547-.188-.547-.25-1h-.75v.75l-1.25-.25z" fill="#E2D09D"/><path d="M2.5 16.5h6c-.25 1-.25 1-.786 1.327l-.667.282c-1.405.659-2.036 1.245-2.625 2.703-.342 1.865-.064 3.184.99 4.756.332.444.332.444.754.832.334.35.334.35.334.85-.661-.127-1.119-.315-1.719-.64-.865-.464-.865-.464-2.281-.359z" fill="#E0CE9C"/><path d="M2.5 2.5h13v6l-1.75.25c-.172-.578-.172-.578-.25-1.25l.75-.75c.188-.739.188-.739 0-1.5-1.677-1.549-4.032-1.586-6.203-1.563l-.657.003c-1.664.022-3.265.19-4.89.56z" fill="#FAE6AA"/><path d="m9 18.5.5 1.5-.672-.063c-1.044.079-1.39.276-2.078 1.063-.355 1.024-.322 1.792.031 2.813.76 1.115 1.662 1.831 2.969 2.188 1.545.166 2.584-.082 4-.75.844-.188.844-.188 1.5-.25.25.25.25.25.266.891l-.016.608-1.44.342c-.577.15-.577.15-1.171.419-1.326.497-2.729.451-4.071.021C7.055 26.471 5.766 25.302 5 23.5c-.222-1.244-.095-2.251.547-3.344C6.498 18.814 7.341 18.384 9 18.5" fill="#4392F1"/><path d="m4.5 27.25.75.5c.754.034 1.494-.001 2.248-.031.789.033 1.282.228 2.002.531 1.478.186 2.686.004 4.043-.583.658-.24 1.266-.219 1.957-.167v2h-13v-2.25c.728-.364 1.221-.175 2 0" fill="#B68C55"/><path d="M22.5 5c.97.97 1.444 2.368 1.565 3.721A24 24 0 0 1 24 10.5c.764-.434 1.409-.846 2-1.5.125 1.536-.129 2.276-1 3.5-.746.564-1.063.75-2 .75-.349-.448-.349-.448-.703-1.047-.66-1.047-1.305-1.721-2.297-2.453L20.5 8c.375.313.375.313.75.75v1L22 9.5c.372-.744.264-1.423.25-2.25-.028-1.694-.028-1.694.25-2.25" fill="#E74C3E"/><path d="M13.5 5.5v1c-1.173-.456-1.173-.456-1.715-.764-.635-.28-1.089-.293-1.781-.284l-.708.005-.734.013-.745.007q-.909.009-1.817.025v1l.719-.25c1.982-.556 3.675-.325 5.531.5-.25.5-.25.5-.662.652-2.196.363-4.541.268-6.588-.654l-.5-.5V5.5c2.68-1.433 6.359-1.643 9 0" fill="#6C6C6C"/><path d="M19.25 23q.253.835.5 1.672l.281.94c.188.763.266 1.36.219 2.138-1.406.063-1.406.063-2.25-.5h-1.5V23.5c1.906-.5 1.906-.5 2.75-.5" fill="#F8E3A8"/><path d="M9.25 20.75c.5.5.5.5.5 1.5l-1.5-.5v1l.422.203c.578.297.578.297 1.172.719.838.419 1.269.335 2.156.078l.5-.5c1.045-.051 1.998-.084 3 .25v.75l-.457.092-.606.127-.598.123c-.591.135-.591.135-1.089.42-.953.453-1.973.368-3.001.238-1.053-.38-2.002-.975-2.5-2-.157-1.494-.157-1.494.297-2.234.609-.357 1.01-.355 1.704-.266" fill="#71ACF3"/><path d="M15.5 12.5h1l.25 2.75 2.75.25v1l-2.75.25-.25 2.75h-1l-.25-2.75-2.75-.25v-1l2.75-.25z" fill="#FD8072"/><path d="M16.75 28c.788.103 1.495.248 2.25.5q.524.03 1.049.029h.637l.684-.004.703-.001q1.111-.002 2.224-.007l1.508-.004q1.848-.004 3.696-.012v1H16.5c0-1.25 0-1.25.25-1.5" fill="#B58B55"/><path d="m5.75 24.25.466.319.613.415.606.413c1.391.868 2.98.716 4.566.603.644-.186 1.147-.443 1.75-.75.844-.188.844-.188 1.5-.25.25.25.25.25.266.891l-.017.609-1.44.342c-.577.15-.577.15-1.171.419-1.33.498-2.737.454-4.079.012-1.341-.624-2.239-1.291-3.06-2.523z" fill="#529CF4"/><path d="M21.25 3.75c.259 1.262.276 2.469.25 3.75l-.453-.25c-.56-.302-.56-.302-1.297-.25l-.5 2.25L17 8.5l.25-1.75c1.188.219 1.188.219 1.75.5l-.044-.448c-.064-1.122-.08-1.633.607-2.567.687-.485.687-.485 1.687-.485" fill="#E2D09D"/><path d="M26.75 11h.5v4.5H23.5v-1.25c.394-.325.394-.325.922-.578 1.058-.585 1.518-1.222 2.076-2.279z" fill="#F9E5AA"/><path d="M2.5 9.75h.25l.047.828c.097.955.097.955.813 1.313l.64.359.234.75c.203.825.203.825 1.047 1.219l.719.281-.25 1H2.5z" fill="#FEE9AC"/><path d="M26 23a343 343 0 0 1 .5 1.688l.281.949C27 26.5 27 26.5 27 27.5h-2c-.281-.438-.281-.438-.5-1 .219-.563.219-.563.5-1l-1.25-1C24.875 23 24.875 23 26 23" fill="#9C9C9C"/><path d="m23.25 23.5-.5 1.5.75.5c.175.666.194 1.31.25 2h-2.5l-.75-3.25c2.188-.75 2.188-.75 2.75-.75" fill="#AEAEB2"/><path d="m5.25 8 .953.125c2.199.241 4.354.141 6.547-.125-.047.469-.047.469-.25 1-1.073.659-2.264.583-3.484.578l-.595.012c-1.248.001-2.078-.175-3.171-.84z" fill="#ABABAF"/><path d="M23.5 16.5h3.75v3c-1.25-.25-1.25-.25-1.75-.75-.156-.531-.156-.531-.25-1h-.75v.75l-1.25-.25z" fill="#F9E4A9"/><path d="M11 15.5h.5l.25 1.75 2.75.25.25 2.75 2.25.25v.75q-.679.01-1.359.016l-.765.009C14.25 21.25 14.25 21.25 14 21a28 28 0 0 1-.015-1.391l.007-.767.008-.592-.593.009-.766.007-.765.009C11.25 18.25 11.25 18.25 11 18a23 23 0 0 1-.015-1.266l.007-.697z" fill="#EBEBEB"/><path d="M2.5 16.5H6v.75l-.575.31-.753.408-.747.404c-.699.38-.699.38-1.425.878z" fill="#FEE9AC"/><path d="M22.5 5c.97.97 1.444 2.368 1.565 3.721A24 24 0 0 1 24 10.5h-1.25l.25-2h-.5q-.072-.734-.141-1.469l-.079-.826C22.25 5.5 22.25 5.5 22.5 5" fill="#CB3E32"/><path d="m9 18.5.5 1.5-.503-.044c-1.452-.074-1.452-.074-2.747.528-.636.973-.834 1.877-1 3.015H5c-.16-1.537-.009-2.561.894-3.834C6.814 18.59 7.617 18.404 9 18.5" fill="#5299EE"/><path d="m6 10.25 4.75.25c-.75 1.25-.75 1.25-1.317 1.399-1.325-.049-2.28-.17-3.433-.898z" fill="#A9A9AD"/><path d="M9.25 20.75c.5.5.5.5.5 1.5l-1.5-.5v1l.422.188c.678.366 1.237.82 1.828 1.312-1.218-.113-1.847-.427-2.75-1.25l-.5.25c-.091-1.602-.091-1.602.297-2.234.608-.357 1.009-.355 1.703-.266" fill="#6296D5"/><path d="M15.5 27.5v2h-2.25v-1.25l-.5-.25c.958-.451 1.695-.549 2.75-.5" fill="#9F7949"/><path d="M25.75 9H26c.125 1.536-.129 2.276-1 3.5-.64.5-.64.5-1.25.75L23 13l.319-.365.415-.479.413-.474c.37-.421.37-.421.603-.932L24 10.5l.594-.328c.711-.395.711-.395 1.156-1.172" fill="#CE3E32"/><path d="M22.75 19.25c1.079.127 2.008.299 3 .75-.632.632-1.12.707-1.984.922l-.804.206c-.712.122-.712.122-1.462-.128z" fill="#EA8E6A"/><path d="M24.75 23.5c.5.25.5.25.713.841l.193.738.198.731c.146.69.146.69.146 1.69l-1.25-.25v-2c-.48-.444-.48-.444-1-.75z" fill="#ADADB1"/><path d="M25.5 21.25V22c-1.734.636-3.424.988-5.25 1.25l.25-.75c.433-.2.433-.2.991-.347l.606-.164.637-.162.634-.17c1.541-.407 1.541-.407 2.132-.407" fill="#6A6A6A"/><path d="m23.25 23.5-.5 1.5.75.5c.175.666.194 1.31.25 2l-1.25-.25c-.281-.938-.281-.938 0-1.5l-.75-.5.25-1.5c.75-.25.75-.25 1.25-.25" fill="#989899"/><path d="M7.75 6c1.7-.094 2.939.056 4.5.75-.25.5-.25.5-.652.655-.808.128-1.592.118-2.41.111l-.957-.007L7.5 7.5v-.25l3-.25c-.725-.483-.974-.575-1.797-.656L7.75 6.25z" fill="#5A5A5A"/><path d="M8 20.75c.594-.031.594-.031 1.25 0 .5.5.5.5.5 1.5l-2.25-.5z" fill="#6AA2E7"/><path d="M8 10.5h2.75c-.219.625-.219.625-.75 1.25-.842.115-1.655.071-2.5 0v-.25H9V11z" fill="#8F8F94"/><path d="M27.5 28.5h2v1h-2z" fill="#A17B4A"/><path d="M4.5 27.25c.423.387.423.387.75.75q-.547.01-1.094.016l-.615.009C3 28 3 28 2.5 27.75v-.5c.734-.367 1.217-.192 2 0" fill="#9C7849"/><path d="M11.5 4.75c1.661.369 1.661.369 2.11 1.031l.14.469c-1.065 0-1.257-.058-2-.75z" fill="#606060"/><path d="M22.75 19.25c1.079.127 2.008.299 3 .75l-.5.5c-.995-.088-1.839-.348-2.75-.75z" fill="#D17E5E"/><path d="M11.5 8h1.25c-.047.469-.047.469-.25 1-.671.381-1.061.53-1.828.406l-.422-.156.625-.344.625-.406z" fill="#99999F"/><path d="M14.75 23.5h.75v.75l-.457.092-.606.127-.598.123c-.597.136-.597.136-1.117.442-.472.216-.472.216-1.222-.034 2.066-1.148 2.066-1.148 3.25-1z" fill="#6194D3"/><path d="M20.5 8c.391.313.391.313.75.75-.031.531-.031.531-.25 1l-.75.25c-.302-.906-.136-1.16.25-2" fill="#BB3C31"/><path d="m10.75 21.5 1 .75-.5 1-1-.25z" fill="#EDDAA2"/><path d="M7.5 18.5H9l.5 1.5-1.25-.5v-.75z" fill="#428DE9"/><path d="M7.5 12.5h1.75l-.25 1-1.25-.25z" fill="#8C8C90"/><path d="m9.5 28.5-3.75-.25V28c1.506-.266 2.458-.362 3.75.5" fill="#957347"/><path d="M16.75 28c.934.124 1.453.219 2.25.75h-2.5z" fill="#977447"/><path d="m22.75 26 .25.75h.5l.25.75-1.25-.25c0-1 0-1 .25-1.25" fill="#9E9E9E"/><path d="m14.25 25 1.25.25v1.25h-.75v-1.25z" fill="#418EEC"/><path d="M26.5 21h.75v1.5l-.75-.25z" fill="#EEDAA3"/></svg>