<svg xmlns="http://www.w3.org/2000/svg" width="200" height="200" viewBox="0 0 200 200"><path d="m66.7 2.734 3.231-.097c6.016-.047 9.823.516 15.531 2.837 7.067 2.752 13.328 2.902 20.836 2.753q4.02.005 8.039.017c4.166-.013 8.33-.042 12.495-.106 26.308-.334 26.308-.334 33.763 6.094a206 206 0 0 1 5.03 6.08l2.698 2.069c4.983 4.047 7.844 7.025 9.214 13.419.336 5.63.334 11.169.216 16.806q.008 4.7.022 9.398c0 4.364-.052 8.727-.102 13.091q-.128 11.484-.116 22.97 0 6.108-.098 12.213l-.014 5.58-.058 4.906c.925 5.317 3.005 6.992 6.988 10.486.83 3.125.83 3.125.781 6.25l.048 3.125c-.83 3.125-.83 3.125-3.948 6-4.219 4.547-3.906 7.516-4.011 13.628-.18 9.358-.18 9.358-2.548 12.662-3.822 2.823-6.322 2.637-11.044 2.609l-4.909.061q-5.086 0-10.169-.036c-9.802.145-16.241 1.047-24.184 6.998-5.942 4.316-12.689 4.058-19.703 3.389-5.947-1.309-11.75-3.028-17.578-4.784a997 997 0 0 0-9.106-2.692l-4.023-1.216c-3.9-.727-6.198-.386-9.917.88l1.172 4.297c.391 5.078.391 5.078-2.344 8.594-4.573 3.558-7.641 5.742-13.378 6.934-5.764-1.074-5.764-1.074-8.027-3.668l-2.162-3.461-2.438-3.869-2.512-4.138-2.509-4.081a786 786 0 0 1-7.452-12.619l-2.581-4.313c-7.747-13.366-7.747-13.366-6.208-21.175 3.516-3.516 3.516-3.516 7.813-6.25l3.125-2.05c4.219-1.45 6.7-.784 10.938.487l3.419 1.758 2.83 1.368 3.125-1.563c.364-6.313.586-12.625.781-18.945l.317-5.406c.478-9.642.478-9.642-3.755-17.875-3.234-2.488-3.234-2.488-6.631-4.353-7.809-4.517-13.772-12.773-16.531-21.297-2.983-16.032-2.272-30.869 7.069-44.624l2.637-4.297C41.142 7.478 52.414 2.839 66.7 2.734" fill="#2C2A2A"/><path d="M101.563 17.188h48.438l1.563 17.188c4.117 4.117 11.394 2.547 17.188 3.125v87.5c-12.5 6.25-12.5 6.25-15.625 6.25v-3.125l-5.109.075c-6.3.084-12.602.137-18.905.183q-4.078.034-8.156.095c-3.925.058-7.848.084-11.775.105l-3.636.073c-8.602.002-14.796-1.93-22.733-5.219-10.842-1.636-18.602 3.109-28.125 7.813V96.875l10.547.098c7.242.195 7.242.195 14.352-.869 3.505-.859 6.641-1.041 10.247-1.113l4.17-.094 4.459-.08 4.597-.098q7.259-.152 14.519-.287l9.852-.203a14347 14347 0 0 1 24.132-.479l1.563-4.688H96.875c9.375-12.5 9.375-12.5 10.938-14.063 3.234-.247 6.48-.392 9.723-.494l5.966-.198 6.284-.188 6.302-.203q7.735-.249 15.475-.478v-3.125L112.5 68.75l1.563-12.5 35.938-1.563 1.563-4.688h-35.939l-1.563-12.5 15.625-1.563v-3.125l-3.772.153-5.017-.055-4.944.055c-5.016-1.714-5.016-1.714-14.391-15.776" fill="#E7EAEC"/><path d="M86.622 13.477c12.003 6.715 18.828 15.428 22.753 28.711 1.997 12.645-.828 22.219-7.813 32.813-7.503 8.85-17.23 15.911-28.864 17.822-12.439.449-21.832-2.959-32.073-10.01-3.922-3.82-6.708-7.736-9.375-12.5l-2.93-5.078c-3.381-11.27-3.523-22.072 1.367-32.909C41.769 11.097 64.316 3.011 86.622 13.477" fill="#D0E4F6"/><path d="m101.563 134.473 4.12 1.333a1758 1758 0 0 1 9.942 3.257 138 138 0 0 1 1.563 7.813c-1.563 1.563-1.563 1.563-6.933 1.953-8.036-.059-15.219-2.485-22.755-5.079V150l3.198.628 4.223.836 4.175.825c4.029.836 4.029.836 6.885 1.72 11.063 2.209 18.375.363 28.003-4.889l3.261-1.692c8.313-4.369 16.339-9.153 24.242-14.225 4.894-2.309 8.161-2.553 13.512-1.953l3.125 3.125c-.18 3.808-.18 3.808-1.563 7.813-2.817 2.528-2.817 2.528-6.506 4.713l-4.112 2.484-4.42 2.569-4.473 2.678a1480 1480 0 0 1-9.008 5.342 1058 1058 0 0 0-11.573 6.922c-22.023 13.337-22.023 13.337-35.994 10.319-6.23-1.659-12.414-3.452-18.6-5.269l-4.634-1.297-4.148-1.216c-5.436-1.072-5.436-1.072-15.28.88L43.75 146.875c5.325-5.325 9.322-8.355 15.723-12.011l4.938-2.852c12.516-6.708 24.494-1.73 37.152 2.461" fill="#F1D8C9"/><path d="m42.188 17.188 3.125 1.563-3.808 4.297c-3.085 3.675-5.005 6.436-5.567 11.327h10.938c7.512 27.68 7.512 27.68 9.375 37.5l-1.563 1.563c-.261 4.688-.261 4.688 0 9.375 1.709 2.023 1.709 2.023 5.859 2.148 5.344-.084 5.344-.084 8.789-4.297 6.977-6.976 14.992-7.378 24.414-7.422 2.084.05 4.167.109 6.25.195l1.563-4.688 1.563 4.688c-5.813 9.605-16.183 15.158-26.563 18.75-13.666 2.245-24.68-1.622-35.938-9.375-3.922-3.82-6.708-7.736-9.375-12.5l-2.93-5.078c-3.439-11.466-3.509-22.178 1.661-33.105 3.367-5.976 7.011-10.488 12.207-14.941" fill="#CFE3F4"/><path d="M89.063 39.063a722 722 0 0 1 2.442 8.203l1.372 4.614c1.375 6.884 1.375 6.884-.689 10.62-4.375 1.978-4.375 1.978-9.863 3.516l-5.452 1.587c-4.998 1.147-4.998 1.147-11.248 1.147q-1.573-4.928-3.125-9.863l-1.758-5.548c-1.367-4.901-1.367-4.901-1.367-9.589a989 989 0 0 1 10.45-3.222l5.877-1.812c5.318-1.168 8.229-1.216 13.361.347" fill="#2E2C2B"/><path d="M37.5 28.125c9.461-.305 9.461-.305 12.5 0 4.502 4.502 4.881 9.88 6.153 15.919 2.472 14.168 2.472 14.168 9.472 26.269 7.145-.175 13.945-.981 20.703-3.32 5.136-1.634 8.488-1.039 13.672.195v6.25l-4.114.573-5.456.794-5.383.769c-9.833 1.472-9.833 1.472-17.078 7.434-2.344 2.93-2.344 2.93-7.128 3.515-4.591-.585-4.591-.585-7.716-3.71-.281-4.3-.5-7.994.983-12.084.875-5.341-.839-9.981-2.35-15.064-2.039-7.059-3.824-14.007-4.883-21.29H35.937z" fill="#323233"/><path d="M32.794 140.013c4.017 2.78 5.477 5.517 7.745 9.834L43 154.453l2.508 4.823q2.495 4.713 4.992 9.419l2.211 4.23c2.042 3.888 2.042 3.888 5.102 8.325 0 3.222 0 3.222-1.563 6.25a164 164 0 0 1-9.375 3.125 11964 11964 0 0 1-9.928-17.766q-1.688-3.025-3.378-6.044a4694 4694 0 0 1-4.852-8.692l-2.952-5.281c-2.327-4.404-2.327-4.404-3.89-9.092 6.883-4.972 6.883-4.972 10.919-3.737" fill="#C9C9CE"/><path d="m79.688 128.419 3.173.548c4.264.999 8.355 2.31 12.452 3.846-6.864 4.577-14.039 8.588-21.191 12.695l-4.6 2.667-4.391 2.52-4.027 2.32c-3.291 1.673-3.291 1.673-6.416 1.673l-3.125 6.25-7.813-15.625q4.781-2.984 9.57-5.956l2.698-1.688c16.877-10.453 16.877-10.453 23.669-9.25" fill="#ECC7B8"/><path d="M78.125 15.625c2.269 7.089 3.492 12.781 3.125 20.313-7.973 2.977-14.786 5.353-23.438 4.688a748 748 0 0 1-2.344-6.641l-1.319-3.734c-1.024-3.688-1.024-3.688-1.024-9.938 8.637-3.291 15.734-5.28 25-4.688" fill="#312E2D"/><path d="M73.438 107.813h78.125v6.25H73.438z" fill="#2A2929"/><path d="M54.688 29.688h1.563l1.563 10.938 23.438-4.688 1.563-4.688v4.688l3.125 1.563q-5.319 1.573-10.644 3.125l-5.989 1.758c-5.244 1.366-5.244 1.366-9.932 1.366l1.367 4.278 1.758 5.586 1.758 5.547c1.367 4.902 1.367 4.902 1.367 9.589l18.75-4.688v3.125L87.5 68.75c-16.217 3.958-16.217 3.958-21.875 3.125-4-3.275-5.5-6.084-6.855-11.023l-1.022-3.692-1.011-3.839-1.064-3.803c-3.214-11.86-3.214-11.86-2.548-18.268z" fill="#B1C0CE"/><path d="m54.688 96.875 6.25 1.563 1.563 29.688-7.813 3.125z" fill="#CACACF"/><path d="m79.688 43.75 4.688 1.563 1.563 12.5-15.625 3.125-3.125-14.063h4.688L73.44 50h3.125z" fill="#D59D69"/><path d="M120.313 134.375h26.563c-4.153 4.153-7.614 6.695-12.597 9.669l-4.156 2.508c-3.56 1.886-3.56 1.886-6.685 1.886z" fill="#E4E7E8"/><path d="M168.75 154.688v12.5h-20.312c3.73-3.73 6.655-6.159 11.036-8.886l3.277-2.07c2.874-1.544 2.874-1.544 5.999-1.544" fill="#E4E7E9"/><path d="M70.313 21.875h3.125l1.563 9.375c-4.541 1.964-7.494 3.125-12.5 3.125L60.938 25l7.813 1.563z" fill="#D69E69"/><path d="M84.375 64.063v3.125l3.125 1.563c-16.281 3.972-16.281 3.972-21.875 3.125L62.5 67.188l4.102.195c6.301-.235 11.645-3.32 17.773-3.32" fill="#BECFDE"/><path d="M89.063 140.625c2.911.395 5.808.902 8.692 1.466l4.791.922 3.704.737 1.563 4.688a802 802 0 0 1-6.641-1.367l-3.734-.769c-3.64-.977-6.641-2.314-9.938-4.114z" fill="#E1BEB1"/><path d="M29.688 139.063c3.32 1.466 3.32 1.466 6.25 3.125l-1.563 7.813h-6.25l-1.563-9.375z" fill="#88878A"/><path d="M156.25 21.875a164 164 0 0 1 7.813 6.25v3.125h-7.813z" fill="#897F89"/><path d="M54.688 29.688h1.563l3.125 12.5h-3.125l-1.563 3.125q-.453-3.466-.878-6.933l-.495-3.902-.19-3.228z" fill="#BACBDA"/></svg>