<svg xmlns="http://www.w3.org/2000/svg" width="32" height="32" viewBox="0 0 32 32"><path d="m1.394-.016.2-.001.219.001.233-.001.641-.001.691-.001L4.732-.02l1.101-.001 3.12-.002h.34q1.365 0 2.729-.003 1.401-.003 2.803-.003.787 0 1.573-.002.67-.002 1.34-.001l.683-.001q.37-.001.741.001l.217-.002c.486.004.822.077 1.197.406l.102.123.105.123c.203.294.231.545.23.899v.137l-.001.453v.325l-.002.882-.001.922-.003 1.746-.003 1.988-.006 4.09h-.625v.938l.304-.003 1.124-.007.485-.004.7-.004.216-.003c.658 0 1.268.126 1.855.427l.126.064c.445.236.838.546 1.191.905v.125l.148.059c.167.068.167.068.292.131q.135.014.272.02l.161.008.168.007.17.008.416.019-.009-.178c-.018-.636-.018-.636.11-.923.311-.311.542-.427.976-.433l.173.002.181-.001.377.001q.287.001.575-.002l.367.001.173-.002c.347.005.558.045.827.285.342.363.285.787.282 1.261l.001.272v1.507q.001.647-.001 1.295-.002.748.001 1.496.002.643.001 1.286v.767q.001.361-.001.722v.264c.005.825.005.825-.283 1.13-.318.284-.594.287-1 .283l-.181.001-.377-.001q-.288-.001-.575.002l-.367-.001-.173.002c-.348-.005-.552-.051-.827-.285-.241-.282-.284-.506-.266-.867l.003-.13.012-.315-.477-.012-.135-.005c-.376-.005-.626.073-.906.339l-.139.154c-.835.856-1.941 1.318-3.138 1.346q-.501.004-1.002-.002l-.351-.002L21 24l.007.124q.013.282.02.564l.011.195.004.192.007.174c-.079.299-.274.472-.487.689l-.16.164q-.231.233-.464.464l-.311.309-.771.767-.654.651-.304.302-.189.188-.165.164q-.435.455-.826.949c-1.728 2.158-1.728 2.158-3.077 2.342-.676.065-1.354.042-2.031.011-.37-.014-.741-.015-1.111-.017a77 77 0 0 1-1.858-.039c-.873-.029-1.745-.042-2.619-.052a187 187 0 0 1-3.512-.069l-.377-.01q-.258-.006-.515-.016l-.15-.003a1.6 1.6 0 0 1-1.047-.416l-.102-.123-.105-.123c-.21-.305-.233-.585-.231-.947l-.001-.153v-.511l-.001-.369-.001-1.017-.001-1.096-.001-2.148-.001-2.248v-.126l-.001-4.722q0-2.098-.003-4.196-.003-2.356-.003-4.713l-.002-2.496q-.002-1.062-.001-2.125L-.034 3.43q-.002-.496 0-.992l-.001-.359q-.001-.244.001-.488l-.002-.141C-.031 1.047.104.727.37.424L.493.322.616.217c.254-.174.476-.233.778-.233" fill="#E0EAF3"/><path d="m1.394-.016.2-.001.219.001.233-.001.641-.001.691-.001L4.732-.02l1.101-.001 3.12-.002h.34q1.365 0 2.729-.003 1.401-.003 2.803-.003.787 0 1.573-.002.67-.002 1.34-.001l.683-.001q.37-.001.741.001l.217-.002c.486.004.822.077 1.197.406l.102.123.105.123c.203.294.231.545.23.899v.137l-.001.453v.325l-.002.882-.001.922-.003 1.746-.003 1.988-.006 4.09q-.144.003-.289.004l-.163.002a3.6 3.6 0 0 1-.548-.069v-.166q-.003-2.001-.011-4.001-.004-.968-.005-1.935-.001-.843-.005-1.686l-.002-.893q0-.42-.003-.84v-.309l-.002-.421-.001-.238c-.038-.239-.095-.298-.282-.448-.151-.037-.151-.037-.317-.031l-.195-.002-.214.002-.228-.001h-.625q-.338.001-.674-.001h-2.859q-1.455-.001-2.909.001-1.249.002-2.498 0l-3.208-.001h-.154l-1.073-.001q-.653-.001-1.307.001h-.667q-.361-.001-.722.001l-.214-.002-.195.002h-.169c-.205.047-.274.11-.395.285a3 3 0 0 0-.031.489l-.001.151q-.001.252.001.504l-.001.364v1.002q.001.54-.001 1.079v4.576q-.001 2.262.001 4.524.002 2.066 0 4.131l-.001 5.134v.246l-.001 1.717q-.001 1.046.001 2.092.001.534 0 1.068-.001.488.001.977v.354q-.001.24.001.48l-.002.141c.003.212.019.329.146.502.205.144.407.131.649.129l.158.001h.524l.375.002 1.019.002 1.065.003q1.008.004 2.017.005l2.296.006q2.362.008 4.723.011L14 30.8a364 364 0 0 1-.014-1.895l-.007-.974-.006-.941-.003-.358c-.017-1.247-.017-1.247.436-1.724.351-.319.69-.433 1.156-.426h.148q.237 0 .472.003l.293.001 1.083.006L20 24.5V17h.938c.117.117.07.287.07.443l-.001.166v.174l-.001.571v.395l-.002 1.042-.001 1.062L21 22.938q.565-.004 1.13-.013l.383-.004c1.178-.009 2.151-.147 3.049-.983l.144-.188c.278-.348.696-.488 1.105-.625h1.188V15.75h-1.5c-.513-.191-.779-.456-1.151-.846-.875-.834-1.944-.879-3.078-.873h-.389q-.406 0-.811.002-.52.003-1.039.001l-.802.001h-.383l-.534.002-.159-.001c-.364.005-.576.075-.84.339-.036.151-.036.151 0 .313.168.171.273.244.512.281l.227-.001.126.001q.135.001.27-.001h.427q.454.002.907.001.526-.002 1.051.002l.42-.002.259.001.227-.001c.239.037.34.114.512.281.106.155.106.155.2.329l.107.195.111.207.232.424.115.21a15 15 0 0 0 .306.524l.088.145q.08.131.163.26c.15.245.219.419.178.707-.16.224-.259.3-.527.363-.329-.075-.419-.276-.598-.551a27 27 0 0 1-.48-.855l-.187-.341-.168-.308-.103-.184-.076-.165c-.099-.164-.099-.164-.285-.185l-.213.001-.242-.001-.129.002q-.201.002-.401.001-.426-.001-.854.001-.493.002-.986 0l-.393.003c-.593-.002-1.003-.085-1.46-.492-.278-.321-.457-.716-.429-1.144.088-.418.299-.806.648-1.059.676-.432 1.429-.37 2.2-.365h.404q.422 0 .843.002.538.003 1.076.001l.833.001h.396c.866-.001 1.652.03 2.439.434l.126.064c.445.236.838.546 1.191.905v.125l.148.059c.164.062.164.062.289.125q.135.014.272.02l.161.008.168.007.17.008.416.019-.009-.178c-.018-.636-.018-.636.11-.923.311-.311.542-.427.976-.433l.173.002.181-.001.377.001q.287.001.575-.002l.367.001.173-.002c.347.005.558.045.827.285.342.363.285.787.282 1.261l.001.272v1.507q.001.647-.001 1.295-.002.748.001 1.496.002.643.001 1.286v.767q.001.361-.001.722v.264c.005.825.005.825-.283 1.13-.318.284-.594.287-1 .283l-.181.001-.377-.001q-.288-.001-.575.002l-.367-.001-.173.002c-.348-.005-.552-.051-.827-.285-.241-.282-.284-.506-.266-.867l.003-.13.012-.315-.477-.012-.135-.005c-.376-.005-.626.073-.906.339l-.139.154c-.835.856-1.941 1.318-3.138 1.346q-.501.004-1.002-.002l-.351-.002L21 24l.007.124q.013.282.02.564l.011.195.004.192.007.174c-.079.299-.274.472-.487.689l-.16.164q-.231.233-.464.464l-.311.309-.771.767-.654.651-.304.302-.189.188-.165.164q-.435.455-.826.949c-1.728 2.158-1.728 2.158-3.077 2.342-.676.065-1.354.042-2.031.011-.37-.014-.741-.015-1.111-.017a77 77 0 0 1-1.858-.039c-.873-.029-1.745-.042-2.619-.052a187 187 0 0 1-3.512-.069l-.377-.01q-.258-.006-.515-.016l-.15-.003a1.6 1.6 0 0 1-1.047-.416l-.102-.123-.105-.123c-.21-.305-.233-.585-.231-.947l-.001-.153v-.511l-.001-.369-.001-1.017-.001-1.096-.001-2.148-.001-2.248v-.126l-.001-4.722q0-2.098-.003-4.196-.003-2.356-.003-4.713l-.002-2.496q-.002-1.062-.001-2.125L-.034 3.43q-.002-.496 0-.992l-.001-.359q-.001-.244.001-.488l-.002-.141C-.031 1.047.104.727.37.424L.493.322.616.217c.254-.174.476-.233.778-.233" fill="#2D4356"/><path d="m18.298 13.989.17-.001.557-.003.193-.001 1.012-.003 1.04-.005q.402-.003.804-.002l.383-.002c1.071-.009 2.072.088 2.892.87l.155.162c.779.8 1.225.693 2.496.746v5.375l-1.188.063c-.599.178-1.005.494-1.438.938-1.2 1.141-2.789.813-4.375.813l-.063-5.875-.563-.063v-1q.27-.025.539-.039l.153-.016a1 1 0 0 1 .433.055c.169.186.266.4.375.625l.203.36.311.558c.278.497.278.497.611.956.255.049.373.043.59-.102.126-.192.117-.296.098-.523-.068-.166-.068-.166-.169-.325l-.11-.184-.119-.194-.241-.402-.121-.201a23 23 0 0 1-.539-.978c-.124-.231-.221-.397-.45-.528-.197-.027-.197-.027-.418-.022h-.126l-.27.001h-.427q-.608-.003-1.215 0l-.744-.002-.283.001c-.83.007-.83.007-1.076-.188-.128-.165-.128-.165-.171-.322.061-.223.18-.322.355-.469.245-.082.479-.073.735-.074" fill="#FEDA80"/><path d="M29 14.25h2v8.5h-2z" fill="#FC785E"/><path d="M5.125 20.563c.437.285.766.736.875 1.25.065.679-.076 1.289-.51 1.826a2.2 2.2 0 0 1-1.509.635c-.383-.007-.655-.075-.981-.273l-.132-.078c-.418-.278-.686-.687-.829-1.168-.121-.628-.036-1.095.291-1.637.661-.972 1.806-1.106 2.795-.555m0-5c.437.285.766.736.875 1.25.065.679-.076 1.289-.51 1.826a2.2 2.2 0 0 1-1.509.635c-.383-.007-.655-.075-.981-.273l-.132-.078c-.418-.278-.686-.687-.829-1.168-.121-.628-.036-1.095.291-1.637.661-.972 1.806-1.106 2.795-.555m0-5c.437.285.766.736.875 1.25.065.679-.076 1.289-.51 1.826a2.2 2.2 0 0 1-1.509.635c-.383-.007-.655-.075-.981-.273l-.132-.078c-.418-.278-.686-.687-.829-1.168-.121-.628-.036-1.095.291-1.637.661-.972 1.806-1.106 2.795-.555m0-5c.437.285.766.736.875 1.25.065.679-.076 1.289-.51 1.826a2.2 2.2 0 0 1-1.509.635c-.383-.007-.655-.075-.981-.273l-.132-.078c-.418-.278-.686-.687-.829-1.168-.121-.628-.036-1.095.291-1.637.661-.972 1.806-1.106 2.795-.555" fill="#2F4558"/><path d="m8.239 22.711.128-.001q.212-.001.422.002l.303-.001q.412-.001.823.002l.862.001q.723 0 1.447.003.836.003 1.673.002l1.609.002.685.001q.403 0 .806.003h.296l.404.002.228.001a.93.93 0 0 1 .511.211c.088.176.078.305.063.5-.111.196-.158.24-.375.313a10 10 0 0 1-.412.01l-.127.001-.424.002-.303.002q-.498.003-.997.003l-.343.001-1.427.003q-1.023.001-2.046.007-.719.004-1.438.004-.43 0-.859.003-.404.003-.808.002l-.296.002h-.405l-.229.001c-.257-.05-.35-.149-.511-.351-.039-.188-.039-.188 0-.375.23-.288.374-.352.74-.351m0-2 .128-.001q.212-.001.422.002l.303-.001q.412-.001.823.002l.862.001q.723 0 1.447.003.837.003 1.673.002.805 0 1.609.002l.685.001q.403 0 .806.003h.296l.404.002.228.001a.93.93 0 0 1 .511.211c.088.176.078.305.063.5-.111.196-.158.24-.375.313a10 10 0 0 1-.412.01l-.127.001-.424.002-.303.002q-.498.003-.997.003l-.343.001-1.427.003q-1.023.001-2.046.007-.719.004-1.438.004-.43 0-.859.003-.404.003-.808.002l-.296.002h-.405l-.229.001c-.257-.05-.35-.149-.511-.351-.039-.188-.039-.188 0-.375.23-.288.374-.352.74-.351m0-3 .128-.001q.212-.001.422.002l.303-.001q.411-.001.823.002l.862.001q.723 0 1.447.003.836.003 1.673.002l1.609.002.685.001q.403 0 .806.003h.296l.404.002.228.001a.93.93 0 0 1 .511.211c.088.176.078.305.063.5-.111.196-.158.24-.375.313a10 10 0 0 1-.412.01l-.127.001-.424.002-.303.002q-.498.003-.997.003l-.343.001-1.427.003q-1.023.001-2.046.007-.719.004-1.438.004-.43 0-.859.003-.404.003-.808.002l-.296.002h-.405l-.229.001c-.257-.05-.35-.149-.511-.351-.039-.188-.039-.188 0-.375.23-.288.374-.352.74-.351m0-7 .128-.001q.212-.001.422.002l.303-.001q.412-.001.823.002l.862.001q.723 0 1.447.003.837.003 1.673.002.805 0 1.609.002l.685.001q.403 0 .806.003h.296l.404.002.228.001a.93.93 0 0 1 .511.211c.088.176.078.305.063.5-.111.196-.158.24-.375.313a10 10 0 0 1-.412.01l-.127.001-.424.002-.303.002q-.498.003-.997.003l-.343.001-1.427.003q-1.023.001-2.046.007-.719.004-1.438.004-.43 0-.859.003-.404.003-.808.002l-.296.002h-.405l-.229.001c-.257-.05-.35-.149-.511-.351-.039-.188-.039-.188 0-.375.23-.288.374-.352.74-.351m0-3 .128-.001q.212-.001.422.002l.303-.001q.411-.001.823.002l.862.001q.723 0 1.447.003.836.003 1.673.002l1.609.002.685.001q.403 0 .806.003h.296l.404.002.228.001a.93.93 0 0 1 .511.211c.088.176.078.305.063.5-.111.196-.158.24-.375.313a10 10 0 0 1-.412.01l-.127.001-.424.002-.303.002q-.498.003-.997.003l-.343.001-1.427.003q-1.023.001-2.046.007-.719.004-1.438.004-.43 0-.859.003-.404.003-.808.002l-.296.002h-.405l-.229.001c-.257-.05-.35-.149-.511-.351-.039-.188-.039-.188 0-.375.23-.288.374-.352.74-.351m0-2 .128-.001q.212-.001.422.002l.303-.001q.412-.001.823.002l.862.001q.723 0 1.447.003.837.003 1.673.002.805 0 1.609.002l.685.001q.403 0 .806.003h.296l.404.002.228.001a.93.93 0 0 1 .511.211c.088.176.078.305.063.5-.111.196-.158.24-.375.313a10 10 0 0 1-.412.01l-.127.001-.424.002-.303.002q-.498.003-.997.003l-.343.001-1.427.003q-1.023.001-2.046.007-.719.004-1.438.004-.43 0-.859.003-.404.003-.808.002l-.296.002h-.405l-.229.001c-.257-.05-.35-.149-.511-.351-.039-.188-.039-.188 0-.375.23-.288.374-.352.74-.351" fill="#2D4356"/><path d="M15.668 25.472h.126q.205 0 .41.004l.285.001.748.006q.382.004.764.005.749.004 1.499.012c-.237.283-.481.552-.743.812l-.105.105-.224.223-.356.354-.883.879-.748.745-.348.346c-.331.33-.658.658-.957 1.018l-.073.081H15a304 304 0 0 1-.013-1.674q-.002-.389-.006-.777-.004-.375-.005-.75l-.003-.286-.002-.401-.002-.23c.03-.194.03-.194.131-.344.199-.134.329-.13.568-.129" fill="#81D8E2"/><path d="m2.046.96.228-.002h.625q.337.001.674-.001H6.43Q7.883.956 9.337.959q1.248.002 2.495 0a1063 1063 0 0 1 3.206-.001h.153l1.071-.001q.653-.001 1.305.001h.666q.361-.001.722.002l.213-.002c.526.007.526.007.72.192.168.243.137.374.112.662l-.11-.123c-.304-.191-.583-.162-.935-.159l-.228-.001h-.625q-.337.001-.674-.001h-2.857q-1.453-.001-2.907.001-1.248.002-2.495 0l-3.206-.001H5.81l-1.071-.001q-.653-.001-1.305.001h-.666q-.361-.001-.722.001l-.213-.002c-.382.002-.382.002-.722.16L1 1.813c-.038-.445-.038-.445.112-.662.257-.245.599-.193.933-.19" fill="#EFF4F9"/><path d="m7.106 2.712.244-.001q.331-.001.662.002l.694.001q.582 0 1.164.003.673.003 1.345.002.648 0 1.295.002l.551.001q.385 0 .769.003l.231-.001.212.002.184.001c.199.029.318.094.48.211.088.176.078.305.063.5-.111.196-.158.24-.375.313a8 8 0 0 1-.336.01l-.211.002-.232.001-.244.002q-.401.003-.802.003l-.276.001-1.149.003q-.823.001-1.646.007-.579.004-1.158.004-.346 0-.691.003-.385.003-.771.002l-.231.003c-.574-.004-.574-.004-.768-.186C6 3.438 6 3.438 5.961 3.25a.7.7 0 0 1 .235-.434c.271-.152.609-.107.91-.104m1.449 12.992.228-.004.618-.004.387-.002q.676-.005 1.352-.005.629 0 1.256-.01.541-.007 1.081-.006.323 0 .644-.005c1.415-.021 1.415-.021 1.742.235.16.159.269.343.387.535.143.109.274.175.438.25v.063q-1.728.011-3.455.016l-1.604.007q-.699.005-1.398.006-.37 0-.74.004l-.697.002q-.189 0-.378.004c-.615-.004-.615-.004-.809-.186-.131-.206-.155-.301-.106-.541.274-.402.611-.359 1.055-.359m.044-2.989h.242q.328 0 .656.004l.686.003q.65.002 1.298.007.74.005 1.478.007 1.52.005 3.04.016l-.091.139-.12.185-.119.182a3 3 0 0 0-.233.493q-1.483.011-2.966.016l-1.377.007q-.6.005-1.201.006-.318 0-.636.004-.355.003-.71.002l-.213.003c-.474-.003-.474-.003-.723-.186-.111-.165-.111-.165-.15-.353a.7.7 0 0 1 .235-.435c.269-.151.604-.105.903-.101M3.014 28.212l.215-.001.703.002h.488q.512 0 1.023.003.591.003 1.182.002.57 0 1.138.002l.484.001q.338 0 .676.003l.202-.001c.57.007.57.007.812.214.088.176.078.305.063.5-.111.196-.158.24-.375.313a6 6 0 0 1-.298.01l-.186.002-.204.001-.215.002-.705.003-.243.001-1.01.003q-.723.001-1.446.007-.57.004-1.14.004l-.485.003-.678.002-.203.003c-.453-.004-.453-.004-.699-.186-.113-.167-.113-.167-.152-.355.119-.57.574-.544 1.053-.538" fill="#2D4356"/><path d="m1 30.188.124.123c.238.16.43.162.708.159l.158.001h.523l.375.002q.509.003 1.018.002.533 0 1.064.003 1.008.004 2.015.005 1.148.002 2.294.006 2.36.008 4.72.011v.5q-2.473.011-4.947.016l-2.297.007q-1.001.005-2.002.006-.53 0-1.06.004-.499.003-.997.002l-.366.002q-.25.002-.5 0l-.147.003c-.251-.003-.361-.031-.559-.19-.185-.241-.149-.367-.124-.662" fill="#BFC7CE"/><path d="m18.298 13.989.17-.001.557-.003.193-.001 1.012-.003 1.04-.005q.402-.003.804-.002l.383-.002c1.071-.009 2.072.088 2.892.87l.155.162c.619.636 1.13.723 1.998.743q.249.003.499.003v.563c-1.638.045-1.638.045-2.313-.563l-.207-.215c-.731-.744-1.659-1.003-2.67-1.013q-.276 0-.551.003h-.389q-.405 0-.809.003-.518.004-1.036.002l-.8.002-.382.001q-.266 0-.532.003l-.159-.001c-.298.004-.46.046-.714.214l-.188-.063c-.019-.137-.019-.137 0-.313.318-.378.579-.385 1.048-.386" fill="#F6DFA6"/><path d="m27.379 20.609.182.003q.22.004.439.012v.5l-.238.005c-1.028.032-1.659.249-2.387.996-.638.607-1.414.834-2.275.825l-.183-.001-.573-.004-.391-.002q-.477-.002-.953-.006v-.5l.236-.003.875-.014.377-.005c1.289-.015 2.182-.186 3.138-1.103l.254-.238.104-.099c.451-.318.852-.386 1.396-.366" fill="#D8B96E"/><path d="M4.313 21.25c.312.156.531.375.688.688.048.426.016.722-.25 1.063-.298.233-.533.291-.911.274-.339-.053-.529-.196-.742-.469-.139-.279-.147-.563-.098-.867.287-.575.701-.755 1.313-.688m0-5c.312.156.531.375.688.688.048.426.016.722-.25 1.063-.298.233-.533.291-.911.274-.339-.053-.529-.196-.742-.469-.139-.279-.147-.563-.098-.867.287-.575.701-.755 1.313-.688m0-5c.312.156.531.375.688.688.048.426.016.722-.25 1.063-.298.233-.533.291-.911.274-.339-.053-.529-.196-.742-.469-.139-.279-.147-.563-.098-.867.287-.575.701-.755 1.313-.688m0-5c.312.156.531.375.688.688.048.426.016.722-.25 1.063-.298.233-.533.291-.911.274-.339-.053-.529-.196-.742-.469-.139-.279-.147-.563-.098-.867.287-.575.701-.755 1.313-.688" fill="#80D7E1"/><path d="M15.668 25.472h.126q.205 0 .41.004l.285.001.748.006q.382.004.764.005.749.004 1.499.012l-.184.215-.103.121a3 3 0 0 1-.15.164 7 7 0 0 1-.353.01l-.229.002-.249.001-.254.003-1.083.009-.662.006-.375.002-.231.003-.203.002c-.194.027-.281.082-.424.212-.031-.46-.031-.46.1-.632.199-.157.316-.149.568-.147" fill="#A9E5EC"/><path d="m3 21.938.055.115c.149.289.33.508.632.635.355.048.635.017.938-.188A2.2 2.2 0 0 0 5 21.937c.031.432.021.715-.25 1.063-.298.233-.533.291-.911.274-.339-.053-.529-.196-.742-.469-.142-.277-.12-.564-.098-.867m0-5 .055.115c.149.289.33.508.632.635.355.048.635.017.938-.188a2.2 2.2 0 0 0 .375-.563c.031.432.021.715-.25 1.063-.298.233-.533.291-.911.274-.339-.053-.529-.196-.742-.469-.142-.277-.12-.564-.098-.867m0-5 .055.115c.149.289.33.508.632.635.355.048.635.017.938-.188a2.2 2.2 0 0 0 .375-.563c.031.432.021.715-.25 1.063-.298.233-.533.291-.911.274-.339-.053-.529-.196-.742-.469-.142-.277-.12-.564-.098-.867m0-5 .055.115c.149.289.33.508.632.635.355.048.635.017.938-.188a2.2 2.2 0 0 0 .375-.563c.031.432.021.715-.25 1.063-.298.233-.533.291-.911.274-.339-.053-.529-.196-.742-.469-.142-.277-.12-.564-.098-.867" fill="#61ACB1"/><path d="M29 22.25h2v.5h-2z" fill="#D1624F"/><path d="M29 14.25h2v.5h-2z" fill="#FB9582"/></svg>