<svg xmlns="http://www.w3.org/2000/svg" width="200" height="200" viewBox="0 0 200 200">
  <path d="M88.281 0h23.828v19.141h87.109v125.781h-58.593v-3.125h-5.469v3.125h-23.047V200H88.281v-55.078H.781V19.141h29.688v2.734h5.469v-2.734h52.344z" fill="#FDAC34"/>
  <path d="M.781 19.141h29.688V25H6.641v114.063h128.516v5.859H112.11V200H88.282v-55.078H.781zM88.281 0h23.828v19.141h87.109v125.781h-58.593c0-3.125 0-3.125.391-5.859h52.344V25H36.328l-.391-5.859h52.344z"/>
  <path d="M77.49 90.332c3.56 2.723 5.473 5.823 6.885 10.059.403 3.958.331 7.623-1.564 11.192-.462.884-.462.884-.302 1.773.286.785.286.785 1.085 1.487-.103 1.484-.898 2.217-1.929 3.223l-.841.836c-.746.629-.746.629-1.527.629-.635-.781-.635-.781-1.172-1.563-1.591.499-1.591.499-3.108 1.181-3.62 1.788-8.088 1.773-11.961.818-4.632-1.793-8.237-5.096-10.492-9.518-1.327-3.654-1.327-9.041 0-12.695 2.559-5.045 6.477-7.975 11.646-9.985 4.725-.896 9.246-.109 13.281 2.563" fill="#050301"/>
  <path d="M148.193 90.332c3.367 2.57 5.543 5.643 6.885 9.668.529 5.446.01 9.885-3.247 14.404-2.707 3.211-6.255 5.482-10.498 6.016-3.577.271-6.917.171-10.084-1.67l-.919-.516c-3.654-2.237-6.397-5.569-7.525-9.754-.725-5.137-.374-10.014 2.722-14.303 5.559-7.061 15.05-8.895 22.665-3.845" fill="#040301"/>
  <path d="M188.281 25h5.078v114.063h-52.343v-.391h47.266z" fill="#F57527"/>
  <path d="M94.141 144.531h11.719v49.609H94.141z" fill="#FF5376"/>
  <path d="M81.641 46.094h5.469c1.729 4.049 3.275 8.155 4.81 12.28l1.559 4.179.381 1.021a470 470 0 0 0 2.139 5.622l.448 1.155q.389 1 .786 1.996c.537 1.38.814 2.325.814 3.825q-.926.395-1.855.781l-1.044.439c-1.007.342-1.007.342-2.57.342l-1.563-4.297-13.281-.391-1.172 3.906-.391.781c-2.061-.211-3.616-.693-5.469-1.563.255-2.16.969-4.046 1.744-6.061l.413-1.09q.665-1.747 1.334-3.493l.909-2.391q1.312-3.445 2.631-6.887l.696-1.819q1.599-4.17 3.212-8.335" fill="#040300"/>
  <path d="M128.906 46.094h5.859l.011 1.935q.025 3.558.07 7.115.016 1.539.025 3.078c.008 1.476.027 2.952.047 4.427l.001 1.387c.053 2.939.34 4.459 2.471 6.541 2.271 1.524 4.458 1.754 7.141 1.297 1.691-.712 3.08-1.753 4.297-3.125.396-1.19.451-2.03.471-3.277l.023-1.303.02-1.405.025-1.44q.038-2.28.071-4.561l.051-3.089q.063-3.79.12-7.58h5.859q.068 4.33.102 8.66.013 2.011.046 4.022c.026 1.546.035 3.091.043 4.637l.03 1.441c.001 3.077-.536 5.195-2.174 7.803l-.659 1.074c-3.058 2.975-6.857 4.426-11.06 4.566-3.788-.094-6.598-1.541-9.375-4.077-3.24-3.467-3.692-7.07-3.63-11.684l.005-1.43q.012-2.245.036-4.489.009-1.528.016-3.057.02-3.733.057-7.465" fill="#060401"/>
  <path d="M90.625 88.672h5.859l.017 1.941q.036 3.566.085 7.13.02 1.543.033 3.086.022 2.218.055 4.436l.008 1.394.023 1.303.013 1.143c.231 1.557.866 2.621 2.074 3.621 2.232 1.276 4.112 1.833 6.675 1.335 2.001-.74 3.562-1.679 4.742-3.505.738-1.741.572-3.689.574-5.55l.02-1.382c.019-1.453.027-2.905.035-4.358q.016-1.48.035-2.96.042-3.623.063-7.245h5.469q.043 4.587.064 9.174.008 1.56.024 3.119.02 2.246.026 4.491l.018 1.401c.001 3.793-.638 6.405-3.277 9.228-3.201 2.989-6.9 4.095-11.229 3.969-3.629-.385-6.543-2.24-9.064-4.82-2.208-3.251-2.673-6.158-2.573-10.016l.01-1.478c.013-1.54.042-3.08.072-4.62q.019-1.577.032-3.154.04-3.844.114-7.686" fill="#040200"/>
  <path d="M37.109 49.219c-.489 1.374-1.026 2.36-2.002 3.443l-.638.716-.485.528-.604-.256c-2.51-.961-4.921-1.225-7.599-.916l-1.172.781c-.098 1.4-.098 1.4 0 2.734 2.495 1.171 4.97 2.31 7.544 3.296 2.789 1.153 5.273 2.929 6.666 5.684.732 2.372.547 5.188-.449 7.46-1.504 2.34-3.812 4.168-6.506 4.888-4.255.665-8.203.343-11.818-2.118a48 48 0 0 1-2.468-2.021c.566-1.345 1.28-2.094 2.393-3.027l.857-.727.656-.543.789.513c2.646 1.599 4.71 2.337 7.805 1.831 1.707-.593 1.707-.593 2.734-1.953.195-1.139.195-1.139 0-2.344-2.001-2.133-5.173-2.895-7.851-3.882-2.721-1.069-4.6-2.222-6.211-4.712-.748-2.246-.825-4.937-.078-7.196 1.26-2.234 3.443-3.929 5.866-4.768 4.952-.841 8.379.021 12.572 2.589m144.14 0c-.551 1.187-1.207 2.185-2.002 3.223l-.638.836-.485.628-.604-.256c-2.454-.94-4.984-1.396-7.599-.916-.931.687-.931.687-1.563 1.563-.189 1.011-.189 1.011.391 1.953 1.72 1.097 3.681 1.798 5.583 2.513 3.557 1.353 6.18 2.884 8.504 5.983.775 2.686.843 5.366-.464 7.886-1.788 2.759-4.215 4.307-7.373 5.102-4.507.517-8.186-.259-11.792-3.027a75 75 0 0 1-1.489-1.269c.566-1.345 1.28-2.094 2.393-3.027l.857-.727.656-.543.789.513c2.646 1.599 4.71 2.337 7.805 1.831 1.707-.593 1.707-.593 2.734-1.953.195-1.139.195-1.139 0-2.344-1.929-2.01-4.759-2.727-7.313-3.664-2.7-1.045-5.344-2.346-6.819-4.964-1.002-2.327-1.018-4.465-.102-6.825 1.113-2.293 2.776-3.745 5.078-4.81 4.733-1.532 9.379-.239 13.452 2.295" fill="#040300"/>
  <path d="M144.902 95.096c2.025 1.536 3.338 3.341 4.316 5.686.444 3.485.505 6.811-1.623 9.758-2.086 2.285-4.277 3.731-7.419 4.031-3.661.014-6.322-.38-9.081-2.899-2.035-2.382-3.12-5.348-3.05-8.467.34-3.684 2.275-6.135 5.055-8.459 3.297-2.076 8.587-1.561 11.801.351m-70.702.002c2.215 1.671 3.777 3.707 4.316 6.464.205 2.652.164 4.915-.781 7.422h-.781c-.635-.781-.635-.781-1.172-1.563-1.393.225-2.036.724-3.003 1.734l-.713.73c-.612.639-.612.639-.972 1.442l1.563.781v1.563c-2.17 1.37-4.961.991-7.422.781-1.208-.342-2.113-.829-3.125-1.563l-1.245-.83c-1.865-1.63-3.266-4.598-3.536-7.047-.101-3.345.83-5.667 2.925-8.261 3.604-3.785 9.421-4.361 13.945-1.654" fill="#FCAC34"/>
  <path d="M104.297 46.094h19.141v6.25h-6.641v25.391h-5.859V51.954h-6.641z" fill="#0A0602"/>
  <path d="M94.141 144.531h11.719v49.609h-4.688v-49.218h-6.641v49.219h-.391z" fill="#F11041"/>
  <path d="M45.703 46.484h18.75v5.469h-6.641v25.781h-5.859V51.953h-6.25z" fill="#010000"/>
  <path d="M94.531 5.859h11.328V19.14H94.531z" fill="#FF5376"/>
  <path d="M101.172 5.859h4.688V19.14h-4.688z" fill="#FF0F43"/>
  <path d="M84.375 55.859c.741 1.111 1.16 2.066 1.627 3.31l.473 1.259.488 1.314.497 1.319c1.212 3.244 1.212 3.244 1.212 4.127h-8.594c.783-2.609 1.591-5.119 2.588-7.641l.369-.953c.897-2.291.897-2.291 1.34-2.734" fill="#F4A632"/>
  <path d="M181.641 126.953h5.859v5.859h-5.859z" fill="#060401"/>
  <path d="M12.891 126.953h5.859v5.859h-5.859z" fill="#070501"/>
  <path d="M181.641 30.469h5.859v5.859h-5.859z" fill="#090601"/>
  <path d="M12.891 30.469h5.859v5.859h-5.859z" fill="#0A0602"/>
</svg>
