<svg xmlns="http://www.w3.org/2000/svg" width="200" height="200" viewBox="0 0 200 200"><path d="M41.016 0h141.406v176.563h-23.438v23.438H17.578V23.438h23.438z" fill="#FEF4F4"/><path d="M88.281 23.828h17.578v52.734l53.125 -0.391v112.109H88.281z" fill="#EBE5F1"/><path d="M41.016 0h141.406v176.563h-23.438V76.172l-1.563 -0.781a51.563 51.563 0 0 1 -2.13 -2.031l-0.637 -0.634q-1.055 -1.052 -2.107 -2.109l-1.513 -1.509q-2.055 -2.049 -4.104 -4.104c-1.429 -1.431 -2.859 -2.859 -4.29 -4.289a9510.547 9510.547 0 0 1 -7.199 -7.203q-4.165 -4.171 -8.337 -8.336a8626.172 8626.172 0 0 1 -7.15 -7.148q-2.136 -2.138 -4.275 -4.273a2242.188 2242.188 0 0 1 -4.013 -4.017q-0.738 -0.739 -1.478 -1.477a630.469 630.469 0 0 1 -2.006 -2.011l-0.6 -0.595C106.25 24.308 106.25 24.308 106.25 23.438H41.016z" fill="#FECC66"/><path d="M105.859 23.828c1.721 1.475 3.37 2.922 4.961 4.521l0.626 0.624a1423.438 1423.438 0 0 1 2.048 2.048l1.479 1.477q1.998 1.996 3.995 3.995 2.09 2.092 4.182 4.182 3.507 3.506 7.013 7.015A14528.906 14528.906 0 0 0 138.281 55.809q3.487 3.484 6.971 6.971 2.082 2.082 4.164 4.164 1.955 1.952 3.906 3.908 0.719 0.72 1.438 1.438 0.977 0.976 1.952 1.955l0.584 0.581C158.594 76.127 158.594 76.127 158.594 76.563H105.859z" fill="#CFCFE6"/><path d="M41.016 0h47.266v23.438H41.016z" fill="#FFE566"/><path d="M88.281 188.281h70.703v11.719H88.281z" fill="#CFCFE6"/><path d="M17.578 188.281h70.703v11.719H17.578z" fill="#EBE5F1"/><path d="M135.938 135.547c1.338 0.632 2.21 1.337 3.253 2.396l0.946 0.954 0.977 0.996 0.995 1.005A814.844 814.844 0 0 1 144.531 143.359c-0.654 1.706 -1.928 2.813 -3.201 4.07l-0.751 0.752q-1.228 1.226 -2.46 2.447l-1.704 1.701q-2.243 2.237 -4.489 4.47 -2.291 2.28 -4.579 4.564A9405.469 9405.469 0 0 1 118.359 170.313c-1.225 -0.543 -2.053 -1.176 -2.995 -2.125l-0.829 -0.829 -0.882 -0.894 -0.913 -0.916c-0.961 -0.965 -1.919 -1.934 -2.877 -2.902l-1.955 -1.965Q105.514 158.273 103.125 155.859c0.632 -1.338 1.337 -2.21 2.396 -3.253l0.954 -0.946 0.996 -0.977 1.005 -0.995A814.844 814.844 0 0 1 110.938 147.266c1.691 1.418 3.307 2.871 4.859 4.443l1.023 1.034L117.578 153.516c2.265 -1.88 4.345 -3.903 6.42 -5.991l1.039 -1.041q1.631 -1.634 3.259 -3.271l2.221 -2.227Q133.229 138.269 135.938 135.547m0.836 -46.816c1.014 0.462 1.638 1.112 2.417 1.907l0.946 0.957 0.977 1.006c0.492 0.501 0.492 0.501 0.995 1.011q1.215 1.236 2.423 2.48c-0.497 1.087 -1.008 1.887 -1.854 2.729l-0.661 0.664 -0.722 0.713 -0.762 0.762a1049.219 1049.219 0 0 1 -2.498 2.486l-1.73 1.727q-2.277 2.272 -4.559 4.539 -2.326 2.316 -4.65 4.634Q122.535 118.896 117.969 123.438c-2.87 -2.43 -2.87 -2.43 -4.192 -3.757l-0.758 -0.758 -0.786 -0.792 -0.829 -0.831q-1.296 -1.3 -2.59 -2.602l-1.77 -1.775Q104.888 110.76 102.734 108.594c1.655 -1.946 3.341 -3.836 5.127 -5.664l0.719 -0.763 0.7 -0.714 0.624 -0.648C110.547 100.391 110.547 100.391 111.323 100.443c0.922 0.397 1.437 0.855 2.136 1.573l0.732 0.744 0.751 0.78 0.769 0.785q0.938 0.959 1.868 1.925c1.365 -0.583 2.225 -1.359 3.257 -2.418l1.004 -1.023 1.074 -1.105q0.555 -0.565 1.112 -1.129c1.573 -1.596 3.141 -3.195 4.704 -4.8q1.437 -1.473 2.885 -2.936a237.5 237.5 0 0 0 1.625 -1.672l1.004 -1.011 0.879 -0.9C135.938 88.672 135.938 88.672 136.773 88.731" fill="#25B3B3"/><path d="M29.297 158.594h35.547v12.109H29.297zm0 -23.438h35.547v12.109H29.297z" fill="#465084"/><path d="M29.297 111.719h35.547v11.719H29.297z" fill="#424B81"/><path d="M29.297 88.281h35.547v11.719H29.297z" fill="#414B80"/><path d="M52.734 41.016h23.828v12.109h-23.828z" fill="#2CB5B5"/><path d="M52.734 64.844h23.828v11.719h-23.828z" fill="#28B4B4"/><path d="M29.297 41.016h12.109v12.109H29.297z" fill="#39E6AC"/><path d="M29.297 64.844h12.109v11.719H29.297z" fill="#35E6AA"/></svg>