<svg xmlns="http://www.w3.org/2000/svg" width="24" height="24" viewBox="0 0 40 40"><path d="m2.993 1.23.25-.001.274.001.291-.001.801-.001.864-.001 1.692-.002 1.376-.001 3.9-.003h.425q1.706 0 3.411-.004 1.751-.004 3.504-.004.984 0 1.966-.003.838-.003 1.675-.001l.854-.001q.463-.001.926.001l.271-.003c.607.005 1.027.096 1.496.508l.128.154.131.154c.255.369.293.709.293 1.149l.001.177.003.579.001.404.001.846q0 .54.005 1.08l.003.834.003.399c.011 1.395.011 1.395-.504 1.983l-.154.128-.154.131c-.379.261-.714.29-1.165.279L25 10v1.25l.547-.02c.594-.006.973.068 1.406.481.239.258.393.444.469.789l.133-.004c3.275-.077 7.98.094 10.571 2.347.395.385.629.725.645 1.291l.001.436.001.244.001.807.001.579.001 1.41.001 1.146.003 3.252v.354l.004 2.844q.004 1.46.004 2.921 0 .819.003 1.64.003.771 0 1.541l.001.566q.001.386-.001.772l.003.226c-.006.563-.14.973-.51 1.4-1.638 1.396-3.785 1.813-5.859 2.143l-.291.048c-1.681.254-3.36.315-5.059.31l-.481-.001c-1.556-.003-3.095-.031-4.638-.259l-.288-.041c-4.95-.715-4.95-.715-6.425-2.479-.227-.352-.263-.657-.261-1.073v-.163l.003-.526.001-.366.004-.961.004-.981.007-1.925-.193.001q-2.317.01-4.634.015l-2.241.007q-.976.005-1.954.006-.517 0-1.034.004l-.974.003q-.179 0-.356.003c-.72.006-1.27-.007-1.836-.504l-.128-.154-.131-.154c-.255-.369-.293-.709-.293-1.149l-.001-.177-.003-.579-.001-.404-.001-.846q0-.54-.005-1.08l-.003-.834-.003-.399c-.011-1.395-.011-1.395.504-1.983l.154-.128.154-.131c.379-.261.714-.29 1.165-.279l.563.014V20l-.547.02c-.591.006-.971-.066-1.404-.479-.429-.463-.574-.83-.573-1.464l-.001-.177-.003-.579-.001-.404-.001-.846q0-.54-.005-1.08l-.003-.834-.003-.399c-.011-1.395-.011-1.395.504-1.983l.154-.128.154-.131c.379-.261.714-.29 1.165-.279l.564.013V10l-.547.02c-.591.006-.971-.066-1.404-.479-.429-.463-.574-.83-.573-1.464L1.225 7.9l-.003-.579-.001-.404-.001-.846q0-.54-.005-1.08l-.003-.834-.003-.399c-.011-1.395-.011-1.395.504-1.983l.154-.128.154-.131c.314-.216.591-.289.969-.289m-.334 1.506c-.171.289-.176.555-.177.886l-.003.299v.321l-.001.331v.694l-.003.886-.001.684-.001.326v.72c.035.286.105.469.265.711.269.135.49.176.789.176l.239.001.261-.001.279.001h.764l.825.001 1.615.001 1.881.001h3.559q1.627 0 3.256.003l3.342.003 1.877.001h2.413q.441.001.884-.001l.26.001c.429-.004.751-.015 1.116-.265.171-.289.176-.555.177-.886l.003-.299v-.321l.001-.331v-.694l.003-.886.001-.684.001-.326v-.72a1.5 1.5 0 0 0-.265-.712 1.6 1.6 0 0 0-.789-.176l-.239-.001-.261.001-.279-.001h-.764l-.825-.001-1.615-.001h-5.44q-1.627 0-3.256-.003l-3.342-.003-1.877-.001H4.916q-.443-.001-.884.001l-.26-.001c-.429.004-.751.015-1.116.265M5 10.001v1.25h2.5v-1.25zm3.75 0v1.25H20v-1.25zm12.5 0v1.25h2.5v-1.25zM2.656 12.735c-.171.289-.176.555-.177.886l-.003.299v.321l-.001.331v.694l-.003.886-.001.684-.001.326v.72c.035.286.105.469.265.711.3.156.554.176.889.175l.304.001.333-.001h.351l.951-.003.995-.001 1.884-.004 2.145-.004q2.207-.001 4.413-.006l.003-.263.014-.971.005-.419q.003-.302.009-.605v-.188c.014-.521.175-.917.5-1.324 2.241-2.009 6.092-2.211 8.924-2.402V12.5a7621 7621 0 0 0-9.086-.013h-.193l-3.093-.005q-1.586-.004-3.174-.004-.979 0-1.959-.004l-1.343-.001-.775-.001h-.84l-.247-.003c-.42.003-.729.021-1.087.265m13.77 3.164c-.111.194-.111.194-.117.425.234.574.901.824 1.438 1.059 5.232 2.11 13.04 2.061 18.245 0 .82-.354.82-.354 1.43-.976.031-.232.031-.232-.079-.469-1.826-1.964-6.264-2.052-8.724-2.143-6.441-.29-6.441-.29-12.195 2.104m-.176 2.227q-.013.921-.018 1.844l-.006.627-.007.901-.005.283c0 .498.005.815.348 1.189 3.415 2.729 10.207 2.248 14.292 1.825 3.508-.346 3.508-.346 6.498-2.005.249-.386.186-.849.177-1.291l-.001-.293a75 75 0 0 0-.01-.921l-.004-.626q-.005-.766-.015-1.532a9 9 0 0 0-.948.371c-2.545 1.111-5.533 1.432-8.285 1.441l-.155.001-.816.003q-.329 0-.657.004c-3.294.026-6.966-.152-9.953-1.679-.251-.151-.251-.151-.436-.14M5 20v1.25h2.5V20zm3.75 0v1.25H15V20zm-6.094 2.735c-.171.289-.176.555-.177.886l-.003.299v.321l-.001.331v.694l-.003.886-.001.684-.001.326v.72c.035.286.105.469.265.711.3.156.554.176.889.175l.304.001.333-.001h.351l.951-.003.995-.001q.941 0 1.884-.004l2.546-.004 4.011-.007v-6.25l-4.199-.011-2.567-.006-1.87-.005-.99-.003q-.466-.003-.932-.001l-.343-.001H3.63l-.264-.001a1.6 1.6 0 0 0-.712.264m13.594 1.641q-.013.922-.018 1.844l-.006.627-.007.901-.005.283c0 .498.005.815.348 1.189 3.415 2.729 10.207 2.248 14.292 1.825 3.508-.346 3.508-.346 6.498-2.005.249-.386.186-.849.177-1.291l-.001-.293a75 75 0 0 0-.01-.921l-.004-.626q-.005-.766-.015-1.532a9 9 0 0 0-.948.371c-2.545 1.111-5.533 1.432-8.285 1.441l-.155.001-.816.003q-.329 0-.657.004c-3.294.026-6.966-.152-9.953-1.679-.251-.151-.251-.151-.436-.14m0 6.25q-.013.921-.018 1.844l-.006.627-.007.901-.005.283c0 .498.005.815.348 1.189 3.415 2.729 10.207 2.248 14.292 1.825 3.508-.346 3.508-.346 6.498-2.005.249-.386.186-.849.177-1.291l-.001-.293a75 75 0 0 0-.01-.921l-.004-.626q-.005-.766-.015-1.532a9 9 0 0 0-.948.371c-2.545 1.111-5.533 1.432-8.285 1.441l-.155.001-.816.003q-.329 0-.657.004c-3.294.026-6.966-.152-9.953-1.679-.251-.151-.251-.151-.436-.14"/><path d="m9.766 23.709.206-.001.431.001q.33.001.66-.003l.42.001.199-.003c.28.005.456.016.701.159.173.296.16.564.156.901l.001.206-.001.431a40 40 0 0 0 .003.66l-.001.42.003.199c-.005.28-.016.456-.159.701-.296.173-.564.16-.901.156l-.206.001-.431-.001a40 40 0 0 0-.66.003l-.42-.001-.199.003c-.28-.005-.456-.016-.701-.159-.173-.296-.16-.564-.156-.901l-.001-.206.001-.431a40 40 0 0 0-.003-.66l.001-.42-.003-.199c.005-.28.016-.456.159-.701.296-.173.564-.16.901-.156M10 25v1.25h1.25V25zm-5.235-1.291.206-.001.431.001q.33.001.66-.003l.42.001.199-.003c.28.005.456.016.701.159.173.296.16.564.156.901l.001.206-.001.431a40 40 0 0 0 .003.66l-.001.42.003.199c-.005.28-.016.456-.159.701-.296.173-.564.16-.901.156l-.206.001-.431-.001a40 40 0 0 0-.66.003l-.42-.001-.199.003c-.28-.005-.456-.016-.701-.159-.173-.296-.16-.564-.156-.901l-.001-.206.001-.431a40 40 0 0 0-.003-.66l.001-.42-.003-.199c.005-.28.016-.456.159-.701.296-.173.564-.16.901-.156M5 25v1.25h1.25V25zm4.766-11.291.206-.001.431.001q.33.001.66-.003l.42.001.199-.003c.28.005.456.016.701.159.173.296.16.564.156.901l.001.206-.001.431a40 40 0 0 0 .003.66l-.001.42.003.199c-.005.28-.016.456-.159.701-.296.173-.564.16-.901.156l-.206.001-.431-.001a40 40 0 0 0-.66.003l-.42-.001-.199.003c-.28-.005-.456-.016-.701-.159-.173-.296-.16-.564-.156-.901l-.001-.206.001-.431a40 40 0 0 0-.003-.66l.001-.42-.003-.199c.005-.28.016-.456.159-.701.296-.173.564-.16.901-.156M10 15v1.25h1.25V15zm-5.235-1.291.206-.001.431.001q.33.001.66-.003l.42.001.199-.003c.28.005.456.016.701.159.173.296.16.564.156.901l.001.206-.001.431a40 40 0 0 0 .003.66l-.001.42.003.199c-.005.28-.016.456-.159.701-.296.173-.564.16-.901.156l-.206.001-.431-.001a40 40 0 0 0-.66.003l-.42-.001-.199.003c-.28-.005-.456-.016-.701-.159-.173-.296-.16-.564-.156-.901l-.001-.206.001-.431a40 40 0 0 0-.003-.66l.001-.42-.003-.199c.005-.28.016-.456.159-.701.296-.173.564-.16.901-.156M5 15v1.25h1.25V15zM9.766 3.709l.206-.001.431.001q.33.001.66-.003l.42.001.199-.003c.28.005.456.016.701.159.173.296.16.564.156.901l.001.206-.001.431a40 40 0 0 0 .003.66l-.001.42.003.199c-.005.28-.016.456-.159.701-.296.173-.564.16-.901.156l-.206.001-.431-.001a40 40 0 0 0-.66.003l-.42-.001-.199.003c-.28-.005-.456-.016-.701-.159-.173-.296-.16-.564-.156-.901l-.001-.206.001-.431a40 40 0 0 0-.003-.66l.001-.42-.003-.199c.005-.28.016-.456.159-.701.296-.173.564-.16.901-.156M10 5v1.25h1.25V5zM4.766 3.709l.206-.001.431.001q.33.001.66-.003l.42.001.199-.003c.28.005.456.016.701.159.173.296.16.564.156.901l.001.206-.001.431a40 40 0 0 0 .003.66l-.001.42.003.199c-.005.28-.016.456-.159.701-.296.173-.564.16-.901.156l-.206.001-.431-.001a40 40 0 0 0-.66.003l-.42-.001-.199.003c-.28-.005-.456-.016-.701-.159-.173-.296-.16-.564-.156-.901l-.001-.206.001-.431a40 40 0 0 0-.003-.66l.001-.42-.003-.199c.005-.28.016-.456.159-.701.296-.173.564-.16.901-.156M5 5v1.25h1.25V5zm8.75 1.25h8.75V7.5h-8.75zm0-2.5h8.75V5h-8.75zm12.5 30.625h1.25v1.25h-1.25zm0-5.625h1.25V30h-1.25zm0-6.875h1.25v1.25h-1.25zM23.75 6.25H25V7.5h-1.25zm0-2.5H25V5h-1.25z"/></svg>